<?xml version="1.0" encoding="UTF-8"?> <svg xmlns="http://www.w3.org/2000/svg" viewBox="0 0 20 20.02"><defs><style>.cls-1{fill:#fff;}</style></defs><title>Asset 6</title><g id="Layer_2" data-name="Layer 2"><g id="Layer_1-2" data-name="Layer 1"><path class="cls-1" d="M15.36,20a9.59,9.59,0,0,1-4.88-1.39A25.72,25.72,0,0,1,1.24,9.28,9,9,0,0,1,0,5.38,5,5,0,0,1,2.16.54,4,4,0,0,1,3.55,0,1.75,1.75,0,0,1,5.3.69c.69.86,1.39,1.7,2.11,2.53a1.64,1.64,0,0,1,.32,1.64A5.68,5.68,0,0,1,6.31,7.05c-.25.26-.52.51-.79.76-.45.4-.48.41-.12.93a24.38,24.38,0,0,0,5.87,5.86c.51.36.49.3.94-.12a18.49,18.49,0,0,1,2.19-1.87,1.87,1.87,0,0,1,2.63.18,21.15,21.15,0,0,0,2.12,1.77,2,2,0,0,1,.7,2.46,4.34,4.34,0,0,1-3.28,2.82C16.11,20,15.62,20,15.36,20Z"></path></g></g></svg> 